HIERARCHY
ROOT Hips
{
	OFFSET 0.000000 0.000000 0.000000
	CHANNELS 6 Xposition Yposition Zposition Zrotation Yrotation Xrotation 
	JOINT LeftUpLeg_virtual
	{
		OFFSET 0.000000 0.000000 0.000000
		CHANNELS 3 Zrotation Yrotation Xrotation
		JOINT LeftUpLeg
		{
			OFFSET 10.205400 -3.823500 0.155100
			CHANNELS 3 Zrotation Yrotation Xrotation
			JOINT LeftLeg
			{
				OFFSET 0.708757 -12.982077 0.567790
				CHANNELS 3 Zrotation Yrotation Xrotation
				JOINT LeftFoot
				{
					OFFSET -0.708756 -10.717838 -2.184338
					CHANNELS 3 Zrotation Yrotation Xrotation
					JOINT LeftToeBase
					{
						OFFSET 0.108149 -7.191104 7.560241
						CHANNELS 3 Zrotation Yrotation Xrotation
						End Site
						{
							OFFSET 0.000000 0.000000 0.000000
						}
					}
				}
			}
		}
	}
	JOINT RightUpLeg_virtual
	{
		OFFSET 0.000000 0.000000 0.000000
		CHANNELS 3 Zrotation Yrotation Xrotation
		JOINT RightUpLeg
		{
			OFFSET -10.205400 -3.823500 0.005500
			CHANNELS 3 Zrotation Yrotation Xrotation
			JOINT RightLeg
			{
				OFFSET -0.708756 -12.982134 0.610632
				CHANNELS 3 Zrotation Yrotation Xrotation
				JOINT RightFoot
				{
					OFFSET 0.708754 -10.717769 -1.945823
					CHANNELS 3 Zrotation Yrotation Xrotation
					JOINT RightToeBase
					{
						OFFSET -0.108140 -7.191069 7.372968
						CHANNELS 3 Zrotation Yrotation Xrotation
						End Site
						{
							OFFSET 0.000000 0.000000 0.000000
						}
					}
				}
			}
		}
	}
	JOINT Spine_virtual
	{
		OFFSET 0.000000 0.000000 0.000000
		CHANNELS 3 Zrotation Yrotation Xrotation
		JOINT Spine
		{
			OFFSET 0.000000 6.876099 0.125700
			CHANNELS 3 Zrotation Yrotation Xrotation
			JOINT Spine1
			{
				OFFSET 0.000000 8.022060 0.146608
				CHANNELS 3 Zrotation Yrotation Xrotation
				JOINT Spine2
				{
					OFFSET 0.000000 9.168068 0.167552
					CHANNELS 3 Zrotation Yrotation Xrotation
					JOINT Neck_virtual
					{
						OFFSET 0.000000 0.000000 0.000000
						CHANNELS 3 Zrotation Yrotation Xrotation
						JOINT Neck
						{
							OFFSET 0.000000 10.314075 0.188496
							CHANNELS 3 Zrotation Yrotation Xrotation
							JOINT Head
							{
								OFFSET 0.000000 7.643700 -2.377400
								CHANNELS 3 Zrotation Yrotation Xrotation
								End Site
								{
									OFFSET 0.000000 0.000000 0.000000
								}
							}
						}
					}
					JOINT LeftShoulder_virtual
					{
						OFFSET 0.000000 0.000000 0.000000
						CHANNELS 3 Zrotation Yrotation Xrotation
						JOINT LeftShoulder
						{
							OFFSET 4.392200 8.824978 0.174984
							CHANNELS 3 Zrotation Yrotation Xrotation
							JOINT LeftArm
							{
								OFFSET 8.771219 -2.981674 -0.026999
								CHANNELS 3 Zrotation Yrotation Xrotation
								JOINT LeftForeArm
								{
									OFFSET 8.512804 0.000000 -0.000000
									CHANNELS 3 Zrotation Yrotation Xrotation
									JOINT LeftHand
									{
										OFFSET 18.484802 0.000000 -0.000000
										CHANNELS 3 Zrotation Yrotation Xrotation
										End Site
										{
											OFFSET 0.000000 0.000000 0.000000
										}
									}
								}
							}
						}
					}
					JOINT RightShoulder_virtual
					{
						OFFSET 0.000000 0.000000 0.000000
						CHANNELS 3 Zrotation Yrotation Xrotation
						JOINT RightShoulder
						{
							OFFSET -4.392200 8.824993 0.141379
							CHANNELS 3 Zrotation Yrotation Xrotation
							JOINT RightArm
							{
								OFFSET -8.771282 -2.981682 -0.094208
								CHANNELS 3 Zrotation Yrotation Xrotation
								JOINT RightForeArm
								{
									OFFSET -8.494598 0.000000 0.000000
									CHANNELS 3 Zrotation Yrotation Xrotation
									JOINT RightHand
									{
										OFFSET -18.483803 0.000000 0.000001
										CHANNELS 3 Zrotation Yrotation Xrotation
										End Site
										{
											OFFSET 0.000000 0.000000 0.000000
										}
									}
								}
							}
						}
					}
				}
			}
		}
	}
}
MOTION
Frames: 9
Frame Time: 0.033333
20.781536 32.293304 -11.375741 -0.193542 -70.688332 0.082483 -3.376120 -0.771028 29.367266 8.783922 -5.565043 -64.647863 4.825228 -2.113147 56.482236 -4.481408 5.352870 8.003977 0.000000 0.000000 0.000000 1.053608 -1.900415 27.872936 -6.917380 6.969129 -59.675656 0.721075 2.588384 58.025640 2.410879 -1.135869 3.571248 0.000000 0.000000 0.000000 0.762481 -0.573518 37.191650 -4.394014 -0.869672 19.745969 -0.498075 -2.749802 7.547789 -0.022051 0.066178 -0.030925 -0.285052 -1.823222 13.247117 -3.288960 2.827344 19.414364 0.000000 0.000000 0.000000 0.574793 -0.230360 7.517463 -13.028652 -27.753458 9.091083 16.478740 -59.151665 -7.171865 -7.266327 -52.161697 8.699205 0.000000 0.000000 0.000000 -2.901281 0.407481 7.476632 28.088852 21.252702 1.369110 32.532758 2.337380 -37.010763 -16.040959 33.157181 -0.202025 0.000000 0.000000 0.000000 
20.783787 31.872021 -10.074644 -0.067142 -67.916423 -0.008616 -3.228339 -1.497097 29.197870 12.662395 -4.061162 -65.496999 3.273108 -2.250295 52.451943 -3.958567 6.475887 8.639291 0.000000 0.000000 0.000000 1.216143 -2.586359 28.013510 -10.105452 6.423861 -59.273987 1.935899 3.836976 61.648393 3.422992 -0.064966 -0.222610 0.000000 0.000000 0.000000 1.023414 -1.093382 36.749481 -4.631027 -1.036315 20.348506 -0.790157 -2.638030 7.754077 -0.007717 0.021021 0.015537 -0.586412 -1.671708 13.304704 -3.340859 2.747883 18.444453 0.000000 0.000000 0.000000 0.326296 -0.080971 7.636646 -13.147042 -27.525498 8.493589 16.526271 -59.861752 -7.612052 -6.660378 -51.427882 8.368644 0.000000 0.000000 0.000000 -3.164326 0.601922 7.573253 27.363649 21.210251 1.175457 32.788074 2.493938 -37.290289 -16.318466 33.553222 -0.275801 0.000000 0.000000 0.000000 
20.761034 31.568438 -8.536332 0.167587 -65.785855 -0.205941 -3.221874 -2.123306 29.067554 16.335364 -2.783402 -66.203091 1.529856 -2.324858 47.276193 -3.527993 7.448568 9.745203 0.000000 0.000000 0.000000 1.751981 -2.961876 28.367297 -13.908999 5.271570 -58.092419 3.165356 5.053636 64.394299 4.213550 1.281815 -3.401699 0.000000 0.000000 0.000000 1.265021 -1.471582 36.414122 -4.882492 -1.199991 20.844098 -1.111548 -2.522917 7.914809 0.004027 -0.010788 0.047997 -0.881635 -1.521690 13.322020 -3.216405 2.584669 17.509446 0.000000 0.000000 0.000000 0.042850 -0.001209 7.766694 -12.994381 -27.098968 7.904697 16.488555 -59.915669 -7.874978 -5.962687 -50.687387 7.968308 0.000000 0.000000 0.000000 -3.486210 0.768181 7.706825 26.644691 21.145473 0.837300 32.821006 2.577677 -37.110586 -16.518304 33.942932 -0.141926 0.000000 0.000000 0.000000 
20.733831 31.356773 -6.684543 -0.000527 -64.212610 0.122164 -2.972357 -2.577671 28.952895 19.077528 -1.712231 -67.030712 -0.172393 -2.362509 42.369166 -3.402380 7.998126 11.099990 0.000000 0.000000 0.000000 2.534096 -3.312034 28.758009 -18.203325 4.146327 -56.150090 4.644899 6.995282 65.119228 5.221444 2.697190 -4.678858 0.000000 0.000000 0.000000 1.502519 -1.697411 36.214872 -5.095065 -1.258524 21.136493 -1.412039 -2.404635 8.040231 0.002844 -0.009502 0.020782 -1.184866 -1.274704 13.290915 -2.916804 2.323453 16.770595 0.000000 0.000000 0.000000 -0.227922 0.105332 7.810368 -12.729661 -26.376563 7.472720 16.329435 -59.371269 -8.257981 -5.583289 -49.947264 7.903310 0.000000 0.000000 0.000000 -3.856543 1.010289 7.871181 26.053803 21.057121 0.338385 32.974060 2.959189 -36.730756 -16.541651 34.418542 0.053625 0.000000 0.000000 0.000000 
20.664371 31.193169 -4.503662 0.136362 -63.100327 0.176761 -2.802579 -2.823473 28.806685 20.763020 -1.020707 -67.738346 -1.820197 -2.411302 38.955533 -3.426527 8.168257 12.427725 0.000000 0.000000 0.000000 3.554018 -4.105490 28.771615 -23.416865 3.073804 -54.387567 6.247754 8.981160 65.046487 6.480437 3.999984 -2.734897 0.000000 0.000000 0.000000 1.642066 -1.724911 36.370392 -5.314319 -1.141407 21.460060 -1.677526 -2.299669 8.043752 -0.001923 0.018742 0.027992 -1.333620 -1.352621 13.235672 -2.375941 2.048803 16.296625 0.000000 0.000000 0.000000 -0.256004 0.106902 7.907965 -12.453342 -25.681914 6.726043 15.721494 -58.494655 -8.235514 -5.332042 -49.269706 7.960318 0.000000 0.000000 0.000000 -4.037126 1.070247 7.936974 25.814579 20.748387 -0.132821 32.995927 3.761625 -35.889171 -16.590063 34.695237 0.031681 0.000000 0.000000 0.000000 
20.567503 31.042053 -2.051639 0.394924 -62.382126 0.156950 -2.466485 -3.303307 28.549223 22.743106 -1.219707 -68.267017 -3.126676 -5.330439 36.296862 -4.856261 7.092706 15.223605 0.000000 0.000000 0.000000 4.558595 -4.511428 28.668350 -28.397172 2.341668 -52.159248 7.531882 10.656359 64.504177 6.658270 4.861940 0.928582 0.000000 0.000000 0.000000 1.716201 -1.774250 36.610046 -5.385188 -0.994644 21.860031 -1.793911 -2.281035 8.037362 0.057002 -0.010685 0.120064 -1.438410 -1.176630 13.009592 -1.655892 1.667264 16.078062 0.000000 0.000000 0.000000 -0.328815 0.051629 7.835694 -12.340699 -24.939399 6.179749 15.450977 -57.009912 -9.053699 -5.196820 -48.620374 8.183906 0.000000 0.000000 0.000000 -4.241466 1.090134 7.918002 25.845839 20.409206 -0.684090 33.141618 5.318479 -34.646701 -16.547977 34.862727 -0.030417 0.000000 0.000000 0.000000 
20.468273 30.909836 0.497356 1.311217 -62.265015 -1.071885 -1.941840 -3.706931 28.174981 23.259617 -1.337589 -68.238016 -3.979453 -6.099644 35.637591 -5.669191 6.325509 17.757112 0.000000 0.000000 0.000000 4.654333 -4.376775 28.554606 -31.409629 2.452200 -49.850136 6.381542 11.968936 63.086926 5.349922 6.437978 3.743561 0.000000 0.000000 0.000000 1.576722 -1.538771 37.373320 -5.503873 -0.662069 22.580298 -1.946753 -2.254524 8.091360 0.086262 -0.058080 0.077394 -1.327609 -1.353078 12.794395 -0.661910 1.353436 16.345578 0.000000 0.000000 0.000000 -0.202071 0.016609 7.622839 -12.407796 -24.336271 5.816910 15.997614 -54.851538 -11.271708 -5.003343 -47.890110 8.335710 0.000000 0.000000 0.000000 -4.203142 1.057853 7.674173 26.253359 20.070345 -1.104583 33.141761 7.759752 -32.655889 -16.565471 34.810203 -0.223682 0.000000 0.000000 0.000000 
20.326981 30.858692 2.898560 1.904329 -62.141423 -1.938628 -1.463842 -3.852103 27.936094 22.975611 -2.207000 -69.260618 -4.881311 -5.653191 38.102320 -6.131957 5.327453 17.852899 0.000000 0.000000 0.000000 4.758517 -3.963932 28.326538 -33.936457 2.433390 -47.790345 6.951895 11.462805 61.863475 3.896567 5.568273 5.975369 0.000000 0.000000 0.000000 1.516398 -1.389432 38.088454 -5.364247 -0.252653 23.200814 -1.958655 -2.243320 8.088938 0.144743 -0.099450 0.000014 -1.173226 -1.387046 12.649249 0.373041 0.905553 16.893739 0.000000 0.000000 0.000000 -0.134950 -0.034074 7.452551 -12.542529 -23.869851 5.556141 16.885312 -51.965531 -14.465494 -5.057113 -47.102771 8.765956 0.000000 0.000000 0.000000 -4.159240 0.978662 7.428482 26.751044 19.833937 -1.452979 33.112245 11.061819 -29.965669 -16.310997 34.797488 -0.247203 0.000000 0.000000 0.000000 
20.185991 30.940960 4.957176 2.544663 -62.421755 -2.502343 -1.069546 -3.730960 27.849144 22.439301 -3.797294 -70.630829 -5.617822 -4.812590 40.858591 -6.593705 4.111948 17.446656 0.000000 0.000000 0.000000 4.342963 -3.659974 28.051741 -35.209277 2.237992 -46.495160 7.064564 10.022234 60.582309 2.776038 4.397802 7.025100 0.000000 0.000000 0.000000 1.194073 -1.211482 38.576314 -5.050933 0.232290 23.466570 -1.863792 -2.225431 7.976844 0.123323 -0.141318 -0.038449 -1.117949 -1.290294 12.357048 1.268312 0.334189 17.587440 0.000000 0.000000 0.000000 -0.060208 0.082698 7.111457 -12.809193 -23.468887 5.546164 17.722251 -48.342081 -17.892539 -5.079076 -46.315441 9.184432 0.000000 0.000000 0.000000 -4.132239 1.088217 7.130776 27.063375 19.823675 -1.864797 33.469433 14.898398 -25.756208 -16.208689 34.760349 -0.624693 0.000000 0.000000 0.000000 
